# xmcd CD database file
#
# Track frame offsets:
#	150
#	13219
#	26495
#	41970
#	53488
#	66169
#	78350
#	101292
#	113556
#	125984
#	139704
#	152375
#	164612
#	177210
#	188772
#	202131
#	214273
#	226165
#	238213
#	249493
#	260474
#	272216
#	286002
#	299290
#	312420
#	325866
#
# Disc length: 4528 seconds
#
# Revision: 0
# Processed by: cddbd v1.5.1PL0 Copyright (c) Steve Scherf et al.
# Submitted via: CDex 1.50
#
DISCID=7c11ae1a
DTITLE=Sonny Stitt - Sax O' Bebop - CD4 - Stitt's It
DYEAR=1900
DGENRE=Jazz
TTITLE0=Nevertheless
TTITLE1=Jeepers Creepers
TTITLE2=Imagination
TTITLE3=Cherokee
TTITLE4=Liza
TTITLE5=Can't We Be Friends
TTITLE6=New Blues Up And Down (Pts 1 and 2, 3)
TTITLE7=The Thrill Of Your Kiss
TTITLE8=If The Moon Turns Green
TTITLE9=P.S. I Love You
TTITLE10=This Can't Be Love
TTITLE11=I Cover The Waterfront
TTITLE12=Don't Worry 'Bout Me
TTITLE13=Down With It
TTITLE14=For The Fat Man
TTITLE15=Splinter
TTITLE16=I'm Confession'
TTITLE17=Cool Mambo
TTITLE18=Sonny Sounds
TTITLE19=Blue Mambo
TTITLE20=Stitt's It
TTITLE21=Sancho Panza
TTITLE22=Hooke's Tours
TTITLE23=Opus
TTITLE24=Loose Walk
TTITLE25=Pink Satin
EXTD=
EXTT0=
EXTT1=
EXTT2=
EXTT3=
EXTT4=
EXTT5=
EXTT6=
EXTT7=
EXTT8=
EXTT9=
EXTT10=
EXTT11=
EXTT12=
EXTT13=
EXTT14=
EXTT15=
EXTT16=
EXTT17=
EXTT18=
EXTT19=
EXTT20=
EXTT21=
EXTT22=
EXTT23=
EXTT24=
EXTT25=
PLAYORDER=
